<?xml version="1.0" encoding="utf-8"?>
<!-- Generator: Adobe Illustrator 27.5.0, SVG Export Plug-In . SVG Version: 6.00 Build 0)  -->
<svg version="1.1" xmlns="http://www.w3.org/2000/svg" xmlns:xlink="http://www.w3.org/1999/xlink" x="0px" y="0px"
	 viewBox="0 0 500 500" style="enable-background:new 0 0 500 500;" xml:space="preserve">
<g id="Background_Simple">
	<g>
		<path style="fill:#92E3A9;" d="M453.463,402.451c-1.772,2.788-3.611,5.523-5.527,8.191
			c-25.513,35.523-67.063,59.216-107.109,69.393c-17.544,4.466-35.491,6.574-53.358,6.767
			c-117.189,1.211-157.681-96.602-194.753-122.515C55.643,338.372-1.133,294.281,8.461,205.015
			C15.744,137.144,56.066,73.117,127.385,45.36c7.855-3.067,16.095-5.693,24.704-7.825c16.016-3.968,33.323-6.27,51.915-6.614
			c53.4-0.991,96.373,13.016,137.891,46.55c9.651,7.795,19.224,16.553,31.979,17.818c9.271,0.919,18.165-2.194,8.69-11.438
			c-11.136-10.866,2.572-31.309,31.164-16.113c47.753,25.38,66.299,77.937,74.297,131.097
			C497.843,264.085,490.16,344.714,453.463,402.451z"/>
		<path style="opacity:0.7;fill:#FFFFFF;" d="M453.463,402.451c-1.772,2.788-3.611,5.523-5.527,8.191
			c-25.513,35.523-67.063,59.216-107.109,69.393c-17.544,4.466-35.491,6.574-53.358,6.767
			c-117.189,1.211-157.681-96.602-194.753-122.515C55.643,338.372-1.133,294.281,8.461,205.015
			C15.744,137.144,56.066,73.117,127.385,45.36c7.855-3.067,16.095-5.693,24.704-7.825c16.016-3.968,33.323-6.27,51.915-6.614
			c53.4-0.991,96.373,13.016,137.891,46.55c9.651,7.795,19.224,16.553,31.979,17.818c9.271,0.919,18.165-2.194,8.69-11.438
			c-11.136-10.866,2.572-31.309,31.164-16.113c47.753,25.38,66.299,77.937,74.297,131.097
			C497.843,264.085,490.16,344.714,453.463,402.451z"/>
	</g>
</g>
<g id="Floor">
	<line style="fill:none;stroke:#263238;stroke-miterlimit:10;" x1="491.036" y1="409.929" x2="11.676" y2="409.929"/>
</g>
<g id="Picture">
	<g>
		<path style="fill:none;stroke:#263238;stroke-miterlimit:10;" d="M89.159,23.057v181.927h139.288V23.057H89.159z M220.856,195.074
			H96.743V32.97h124.113V195.074z"/>
		<path style="fill:none;stroke:#263238;stroke-miterlimit:10;" d="M152.501,195.074c7.849-5.497,16.142-11.131,24.571-16.807
			c14.728-9.938,29.868-20.003,43.783-29.709"/>
		<path style="fill:none;stroke:#263238;stroke-miterlimit:10;" d="M220.856,93.296c-8.155,3.344-16.606,7.311-25.015,11.5
			c-21.554,10.751-42.802,23.042-57.963,30.437c-17.081,8.345-26.428,10.476-19.803-2.775c1.498-3.007,3.608-6.109,6.214-9.284
			c7.596-9.252,19.476-19.096,33.307-28.781c19.423-13.599,42.676-26.871,63.259-37.77"/>
		<path style="fill:none;stroke:#263238;stroke-miterlimit:10;" d="M220.856,40.439c-19.792,7.385-44.881,20.003-74.864,41.367
			c-1.287,0.918-2.553,1.836-3.798,2.764c-12.776,9.442-22.894,18.737-31.018,27.779c-5.729,6.362-10.455,12.597-14.433,18.653"/>
		<path style="fill:none;stroke:#263238;stroke-miterlimit:10;" d="M96.743,81.036c4.463-4.188,9.189-8.482,14.19-12.871
			c3.123-2.743,6.098-5.37,8.915-7.87c12.65-11.247,22.335-20.193,29.752-27.325"/>
		<path style="fill:none;stroke:#263238;stroke-miterlimit:10;" d="M96.743,176.284c16.912-13.705,34.584-25.69,31.07-12.66
			c-2.511,9.295-10.846,20.816-20.119,31.45"/>
		<path style="fill:none;stroke:#263238;stroke-miterlimit:10;" d="M105.468,32.97c3.133,7.891,7.765,17.619,14.38,27.325
			c5.813,8.535,13.156,17.06,22.345,24.276c4.653,3.672,9.77,6.995,15.403,9.822c2.121,1.076,4.315,2.078,6.583,2.996
			c9.063,3.672,19.919,6.024,31.661,7.406c8.018,0.95,16.458,1.456,25.015,1.604"/>
		<path style="fill:none;stroke:#263238;stroke-miterlimit:10;" d="M188.108,195.074c-1.213-1.973-2.479-4.009-3.798-6.119
			c-2.247-3.587-4.663-7.153-7.237-10.687c-11.046-15.192-24.846-29.783-39.194-43.034c-4.494-4.167-9.052-8.187-13.589-12.059
			c-4.41-3.756-8.799-7.375-13.114-10.824c-4.948-3.946-9.791-7.67-14.433-11.152"/>
		<circle style="fill:none;stroke:#263238;stroke-miterlimit:10;" cx="148.68" cy="57.112" r="8.542"/>
		
			<ellipse transform="matrix(0.1608 -0.987 0.987 0.1608 9.5342 303.7507)" style="fill:none;stroke:#263238;stroke-miterlimit:10;" cx="183.381" cy="146.269" rx="11.567" ry="11.567"/>
		<circle style="fill:none;stroke:#263238;stroke-miterlimit:10;" cx="110.952" cy="85.229" r="2.135"/>
		<circle style="fill:none;stroke:#263238;stroke-miterlimit:10;" cx="147.256" cy="177.412" r="4.627"/>
		<circle style="fill:none;stroke:#263238;stroke-miterlimit:10;" cx="202.067" cy="84.518" r="6.762"/>
	</g>
</g>
<g id="Plant">
	<g>
		<g>
			<g>
				<path style="fill:#A6A6A6;stroke:#263238;stroke-linecap:round;stroke-linejoin:round;stroke-miterlimit:10;" d="
					M386.274,156.067c0,0,0,27.902,0.597,30.886c0.597,2.984,2.355,4.211,2.355,4.211l2.271,172.228l4.924,0.298l-2.984-125.41
					l-1.123-47.116c0,0,2.019,0.116,2.168-4.808c0.149-4.924,2.835-24.769,2.835-24.769l-1.94-0.597c0,0-2.984,24.619-3.581,25.365
					c-0.597,0.746-2.238-1.492-2.537-3.879c-0.298-2.387,0-26.559,0-26.559L386.274,156.067z"/>
				<path style="fill:#263238;stroke:#263238;stroke-linecap:round;stroke-linejoin:round;stroke-miterlimit:10;" d="
					M392.313,191.164c0.211-0.081,0.454-0.174,0.708-0.27c0.598-0.432,1.369-1.562,1.46-4.538
					c0.149-4.924,2.835-24.769,2.835-24.769l-1.94-0.597c0,0-2.984,24.619-3.581,25.365c-0.597,0.746-2.238-1.492-2.537-3.879
					c-0.298-2.387,0-26.559,0-26.559l-2.984,0.149c0,0,0,27.902,0.597,30.886c0.597,2.984,2.355,4.211,2.355,4.211
					S389.952,192.072,392.313,191.164z"/>
				<path style="fill:#263238;stroke:#263238;stroke-linecap:round;stroke-linejoin:round;stroke-miterlimit:10;" d="
					M391.36,155.594c0,0,5.67-7.908,14.772-11.638c9.102-3.73,25.515-6.118,26.112-6.118c0.597,0-15.368,5.073-20.292,7.311
					c-4.924,2.238-11.34,5.67-13.28,7.759c-1.94,2.089-11.041,16.711-11.041,16.711S387.928,163.651,391.36,155.594z"/>
				<path style="fill:#92E3A9;stroke:#263238;stroke-linecap:round;stroke-linejoin:round;stroke-miterlimit:10;" d="
					M375.808,129.844c0,0-5.67-7.908-14.771-11.638c-9.102-3.73-25.515-6.118-26.112-6.118c-0.597,0,15.368,5.073,20.292,7.311
					c4.924,2.238,11.34,5.67,13.28,7.759c1.94,2.089,11.041,16.711,11.041,16.711S379.239,137.901,375.808,129.844z"/>
				<path style="fill:#92E3A9;stroke:#263238;stroke-linecap:round;stroke-linejoin:round;stroke-miterlimit:10;" d="
					M388.341,152.076c0,0-15.518-22.978-19.845-24.918c-4.327-1.94-7.759-3.73-13.578-2.238c-5.819,1.492-17.905,8.057-20.143,9.251
					c-2.238,1.194-5.222,3.283-6.416,3.879c-1.194,0.597,15.368-9.251,24.62-10.444c9.251-1.194,10.892,3.282,20.889,11.041
					C383.865,146.406,388.341,152.076,388.341,152.076z"/>
				<path style="fill:#92E3A9;stroke:#263238;stroke-linecap:round;stroke-linejoin:round;stroke-miterlimit:10;" d="
					M388.341,152.076c0,0-10.295-16.413-17.308-18.203c-7.013-1.79-15.368,2.089-18.203,3.73
					c-2.835,1.641-7.013,10.892-7.908,14.473c-0.895,3.581-1.492,6.267-1.492,6.267s8.952-14.622,12.533-16.861
					c3.581-2.238,9.102-5.67,10.743-5.968C368.347,135.215,384.76,145.212,388.341,152.076z"/>
				<path style="fill:#92E3A9;stroke:#263238;stroke-linecap:round;stroke-linejoin:round;stroke-miterlimit:10;" d="
					M384.163,143.571c0,0-19.994-13.429-30.439-13.28c-10.445,0.149-23.426,4.029-26.858,4.625
					c-3.432,0.597-6.864,38.422-6.864,38.422s14.772-34.244,19.695-34.095c4.924,0.149,21.038-4.476,26.41-2.686
					C371.481,138.349,384.163,143.571,384.163,143.571z"/>
				<path style="fill:#92E3A9;stroke:#263238;stroke-linecap:round;stroke-linejoin:round;stroke-miterlimit:10;" d="
					M388.043,157.298c0,0-6.416-12.086-11.787-14.772c-5.372-2.686-10.743,2.089-19.248,5.371
					c-8.505,3.283-14.921,5.521-14.921,5.521s14.026,0.746,19.397-1.194c5.371-1.94,13.876-5.67,15.816-5.372
					C379.239,147.152,388.043,157.298,388.043,157.298z"/>
				<path style="fill:#263238;stroke:#263238;stroke-linecap:round;stroke-linejoin:round;stroke-miterlimit:10;" d="
					M392.69,161.289c0,0-5.67-30.588-5.67-41.778c0-11.191,0.149-15.965,0.149-15.965s3.73,14.622,4.178,16.413
					c0.448,1.791,0.448,4.775,0.448,4.775s2.686-15.816,6.118-19.696c3.432-3.879,7.759-5.819,7.759-5.819s-3.879,7.311-4.625,9.4
					c-0.746,2.089,3.133-2.835,7.311-4.029c4.178-1.193,14.473-3.432,14.473-3.432s-13.727,5.521-15.368,7.311
					c-1.641,1.79-5.67,8.356-5.968,9.102c-0.298,0.746-5.222,9.251-6.565,14.175C393.585,136.669,392.69,161.289,392.69,161.289z"/>
				<path style="fill:#92E3A9;stroke:#263238;stroke-linecap:round;stroke-linejoin:round;stroke-miterlimit:10;" d="
					M396.122,124.136l11.638-7.759c0,0,14.324-2.238,16.711-1.492c2.387,0.746,5.67,2.984,5.67,2.984s-9.251-0.895-13.28,1.045
					c-4.029,1.94-12.832,5.371-18.054,12.384c-5.222,7.013-7.162,14.771-7.759,17.308c-0.597,2.537-1.79,7.311-1.79,7.311
					s-2.686-12.981-1.641-18.203C388.662,132.492,396.122,124.136,396.122,124.136z"/>
				<path style="fill:#92E3A9;stroke:#263238;stroke-linecap:round;stroke-linejoin:round;stroke-miterlimit:10;" d="
					M381.499,115.78c0,0,6.864,9.251,7.908,12.235c1.044,2.984,2.686-7.46,9.997-13.876c7.311-6.416,30.886-10.295,30.886-10.295
					s-28.648,13.876-32.975,19.397c-4.327,5.521-8.505,14.921-8.505,15.368c0,0.448,0,5.521,0,5.521L381.499,115.78z"/>
				<path style="fill:#263238;stroke:#263238;stroke-linecap:round;stroke-linejoin:round;stroke-miterlimit:10;" d="
					M386.436,135.191c0,0-9.549-16.413-14.473-22.083c-4.924-5.67-21.187-18.353-21.187-18.353s6.714,8.356,15.368,20.143
					c8.654,11.787,22.381,29.096,22.381,29.096L386.436,135.191z"/>
				<path style="fill:#92E3A9;stroke:#263238;stroke-linecap:round;stroke-linejoin:round;stroke-miterlimit:10;" d="
					M385.081,167.257c0,0-15.518-12.683-23.724-9.549c-8.206,3.133-17.607,13.13-17.607,13.13l-2.089,11.34
					c0,0,11.042-15.965,15.816-18.203c4.775-2.238,11.489-3.133,14.772-2.387c3.283,0.746,12.981,8.952,13.429,9.997
					C386.125,172.629,385.081,167.257,385.081,167.257z"/>
				<path style="fill:#92E3A9;stroke:#263238;stroke-linecap:round;stroke-linejoin:round;stroke-miterlimit:10;" d="
					M381.052,129.657c0,0-2.984-2.686-4.924-13.429c-1.94-10.743,0.298-20.442,0.298-20.442s1.044,6.416,3.432,13.876
					c2.387,7.46,2.387,10.146,5.968,21.188c3.581,11.041,4.029,30.886,3.879,31.334
					C389.557,162.632,381.052,129.657,381.052,129.657z"/>
				<path style="fill:#263238;stroke:#263238;stroke-linecap:round;stroke-linejoin:round;stroke-miterlimit:10;" d="
					M405.522,132.79c0,0,4.625-5.968,10.594-7.759c5.968-1.791,12.086-1.641,12.086-1.641s-8.953-2.536-14.921-1.343
					c-5.968,1.194-10.594,8.206-12.683,14.772c-2.089,6.565-2.089,21.934-2.089,21.934S401.792,138.609,405.522,132.79z"/>
				<path style="fill:#92E3A9;stroke:#263238;stroke-linecap:round;stroke-linejoin:round;stroke-miterlimit:10;" d="
					M383.079,138.573c0,0,0.322-6.283-4.672-13.532c-4.994-7.249-15.143-11.276-22.231-14.337c-7.088-3.061-11.276-4.35-11.276-4.35
					s15.948,12.565,20.136,14.337c4.188,1.772,7.249,4.188,10.149,7.571c2.9,3.383,8.054,15.787,8.054,16.592
					C383.24,145.661,383.079,138.573,383.079,138.573z"/>
				<path style="fill:#92E3A9;stroke:#263238;stroke-linecap:round;stroke-linejoin:round;stroke-miterlimit:10;" d="
					M401.046,147.562c0,0,5.67-7.908,14.772-11.638c9.102-3.73,25.515-6.118,26.111-6.118s-15.368,5.073-20.292,7.311
					c-4.924,2.238-11.34,5.67-13.28,7.759c-1.94,2.089-11.041,16.711-11.041,16.711S397.614,155.619,401.046,147.562z"/>
				<path style="fill:#92E3A9;stroke:#263238;stroke-linecap:round;stroke-linejoin:round;stroke-miterlimit:10;" d="
					M388.512,169.794c0,0,15.518-22.978,19.845-24.918c4.327-1.94,7.759-3.73,13.578-2.238c5.819,1.492,17.905,8.057,20.143,9.251
					c2.238,1.194,5.222,3.283,6.416,3.879c1.194,0.597-15.368-9.251-24.619-10.445c-9.251-1.194-10.892,3.283-20.889,11.042
					C392.988,164.124,388.512,169.794,388.512,169.794z"/>
				<path style="fill:#263238;stroke:#263238;stroke-linecap:round;stroke-linejoin:round;stroke-miterlimit:10;" d="
					M388.512,169.794c0,0,10.295-16.413,17.308-18.203c7.013-1.79,15.368,2.089,18.203,3.73c2.835,1.641,7.013,10.892,7.908,14.473
					c0.895,3.581,1.492,6.267,1.492,6.267s-8.952-14.622-12.533-16.861c-3.581-2.238-9.102-5.67-10.743-5.968
					C408.506,152.933,392.093,162.93,388.512,169.794z"/>
				<path style="fill:#92E3A9;stroke:#263238;stroke-linecap:round;stroke-linejoin:round;stroke-miterlimit:10;" d="
					M392.69,161.289c0,0,19.994-13.429,30.439-13.28c10.445,0.149,23.426,4.029,26.858,4.625c3.432,0.597,6.864-0.298,6.864-0.298
					s-14.772,4.476-19.695,4.625c-4.924,0.149-21.038-4.476-26.41-2.686C405.373,156.067,392.69,161.289,392.69,161.289z"/>
				<path style="fill:#92E3A9;stroke:#263238;stroke-linecap:round;stroke-linejoin:round;stroke-miterlimit:10;" d="
					M398.062,155.32c0,0-3.432-10.444,0.149-18.054c3.581-7.61,8.206-18.054,8.206-18.054s1.641,13.279-1.194,22.232
					C402.389,150.397,398.062,155.32,398.062,155.32z"/>
				<path style="fill:#92E3A9;stroke:#263238;stroke-linecap:round;stroke-linejoin:round;stroke-miterlimit:10;" d="
					M389.408,162.93c0,0,0-12.981-8.953-19.099c-8.952-6.117-18.949-8.057-22.53-6.117c-3.581,1.94-14.324,7.908-17.457,11.937
					c-3.133,4.029-5.67,7.162-5.67,7.162s15.816-10.445,20.74-14.026c4.924-3.581,7.311-4.476,9.102-4.029
					c1.791,0.447,12.086,5.222,16.114,8.356C384.782,150.247,389.408,162.93,389.408,162.93z"/>
				<path style="fill:#263238;stroke:#263238;stroke-linecap:round;stroke-linejoin:round;stroke-miterlimit:10;" d="
					M389.706,165.019c-0.149-0.448,0.298-3.879-5.819-4.327c-6.117-0.448-10.743,2.238-11.787,4.476
					c-1.044,2.238,0,8.206,0.149,8.803c0.149,0.597,0.895-7.908,8.057-9.549C387.468,162.781,389.706,165.019,389.706,165.019z"/>
				<path style="fill:#92E3A9;stroke:#263238;stroke-linecap:round;stroke-linejoin:round;stroke-miterlimit:10;" d="
					M387.319,170.54c0,0-1.94-4.178-5.819-8.654c-3.879-4.476-12.235-8.654-16.264-6.118c-4.029,2.536-8.654,13.13-10.146,16.115
					c-1.492,2.984-4.924,12.086-5.222,12.534c-0.299,0.448,8.803-8.057,12.683-13.13c3.879-5.073,6.565-12.086,8.803-12.683
					c2.238-0.597,6.864,3.879,6.864,3.879l11.041,15.965L387.319,170.54z"/>
				<path style="fill:#92E3A9;stroke:#263238;stroke-linecap:round;stroke-linejoin:round;stroke-miterlimit:10;" d="
					M387.915,159.648c0,0-1.94-8.952-8.654-11.34c-6.714-2.387-14.772-3.283-17.905-1.492c-3.133,1.79-16.861,14.473-16.861,14.473
					l-1.79,4.626c0,0,20.143-14.772,24.768-16.264c4.626-1.492,4.626-1.492,9.549,1.492
					C381.947,154.127,387.915,159.648,387.915,159.648z"/>
				<path style="fill:#92E3A9;stroke:#263238;stroke-linecap:round;stroke-linejoin:round;stroke-miterlimit:10;" d="
					M386.722,159.648c0,0-19.546-11.787-23.724-13.28c-4.178-1.492-13.578,2.238-16.264,5.67
					c-2.686,3.432-12.086,22.083-12.533,23.426c-0.448,1.343,6.267-14.473,16.413-19.099c10.146-4.626,16.711-3.73,22.68-3.133
					c5.968,0.597,13.429,10.594,13.429,10.594V159.648z"/>
				<path style="fill:#92E3A9;stroke:#263238;stroke-linecap:round;stroke-linejoin:round;stroke-miterlimit:10;" d="
					M388.811,175.016c0,0,6.416-12.086,11.788-14.772c5.371-2.686,10.743,2.089,19.248,5.372c8.505,3.283,14.921,5.521,14.921,5.521
					s-14.026,0.746-19.397-1.194c-5.371-1.94-13.876-5.67-15.816-5.372C397.614,164.87,388.811,175.016,388.811,175.016z"/>
				<path style="fill:#92E3A9;stroke:#263238;stroke-linecap:round;stroke-linejoin:round;stroke-miterlimit:10;" d="
					M389.408,162.93c0,0,3.283-9.4,5.222-21.635c1.94-12.235-1.343-34.169-4.476-40.734c-3.133-6.565-12.384-17.308-12.384-17.308
					s16.413,14.324,19.994,27.753c3.581,13.429,4.178,20.591,2.686,27.902C398.957,146.219,389.408,162.93,389.408,162.93z"/>
				<g>
					<path style="fill:#92E3A9;stroke:#263238;stroke-linecap:round;stroke-linejoin:round;stroke-miterlimit:10;" d="
						M385.495,144.05c0,0-1.45-5.477-3.061-6.605c-1.611-1.128-4.833,0.161-4.833,0.161s5.638,4.994,5.638,7.249
						c0,2.255,5.728,15.835,5.728,15.835L385.495,144.05z"/>
					<path style="fill:#92E3A9;stroke:#263238;stroke-linecap:round;stroke-linejoin:round;stroke-miterlimit:10;" d="
						M382.434,137.446c0,0-2.416,1.691-4.302,3.397c-1.886,1.706-10.867,10.598-11.406,11.137
						c-0.539,0.539,4.67-11.316,5.838-13.562c1.168-2.245,3.233-3.862,3.862-3.772C377.054,134.735,382.605,136.025,382.434,137.446
						z"/>
				</g>
			</g>
			<g>
				<path style="fill:#A6A6A6;stroke:#263238;stroke-linecap:round;stroke-linejoin:round;stroke-miterlimit:10;" d="
					M416.505,198.373c0,0,0,24.45-0.523,27.065c-0.523,2.615-2.064,3.69-2.064,3.69l-1.99,155.712l-4.315,0.262l2.615-114.686
					l0.984-41.288c0,0-1.769,0.101-1.9-4.213c-0.131-4.315-2.484-21.705-2.484-21.705l1.7-0.523c0,0,2.615,21.574,3.138,22.228
					c0.523,0.654,1.961-1.308,2.223-3.4c0.262-2.092,0-23.273,0-23.273L416.505,198.373z"/>
				<path style="fill:#263238;stroke:#263238;stroke-linecap:round;stroke-linejoin:round;stroke-miterlimit:10;" d="
					M411.213,229.129c-0.185-0.071-0.398-0.152-0.621-0.237c-0.524-0.379-1.2-1.369-1.279-3.977
					c-0.131-4.315-2.484-21.705-2.484-21.705l1.7-0.523c0,0,2.615,21.574,3.138,22.228c0.523,0.654,1.961-1.308,2.223-3.4
					c0.262-2.092,0-23.273,0-23.273l2.615,0.131c0,0,0,24.45-0.523,27.065c-0.523,2.615-2.064,3.69-2.064,3.69
					S413.282,229.924,411.213,229.129z"/>
				<path style="fill:#263238;stroke:#263238;stroke-linecap:round;stroke-linejoin:round;stroke-miterlimit:10;" d="
					M412.048,197.959c0,0-4.969-6.93-12.944-10.198c-7.976-3.269-22.358-5.361-22.881-5.361c-0.523,0,13.467,4.445,17.782,6.407
					s9.937,4.968,11.637,6.799c1.7,1.831,9.676,14.644,9.676,14.644S415.055,205.02,412.048,197.959z"/>
				<path style="fill:#92E3A9;stroke:#263238;stroke-linecap:round;stroke-linejoin:round;stroke-miterlimit:10;" d="
					M425.677,175.395c0,0,4.968-6.93,12.944-10.199c7.976-3.269,22.358-5.361,22.881-5.361c0.523,0-13.467,4.446-17.782,6.407
					c-4.315,1.961-9.937,4.969-11.637,6.799c-1.7,1.83-9.676,14.644-9.676,14.644S422.669,182.455,425.677,175.395z"/>
				<path style="fill:#92E3A9;stroke:#263238;stroke-linecap:round;stroke-linejoin:round;stroke-miterlimit:10;" d="
					M414.693,194.876c0,0,13.598-20.136,17.39-21.835c3.792-1.7,6.799-3.269,11.898-1.961c5.099,1.307,15.69,7.061,17.651,8.107
					c1.961,1.046,4.576,2.876,5.622,3.4c1.046,0.523-13.467-8.107-21.574-9.153c-8.107-1.046-9.545,2.877-18.305,9.676
					C418.616,189.908,414.693,194.876,414.693,194.876z"/>
				<path style="fill:#92E3A9;stroke:#263238;stroke-linecap:round;stroke-linejoin:round;stroke-miterlimit:10;" d="
					M414.693,194.876c0,0,9.022-14.383,15.167-15.952c6.145-1.569,13.467,1.831,15.952,3.269c2.484,1.438,6.145,9.545,6.93,12.683
					c0.785,3.138,1.308,5.491,1.308,5.491s-7.845-12.814-10.983-14.775c-3.138-1.961-7.976-4.968-9.414-5.23
					C432.214,180.102,417.832,188.862,414.693,194.876z"/>
				<path style="fill:#92E3A9;stroke:#263238;stroke-linecap:round;stroke-linejoin:round;stroke-miterlimit:10;" d="
					M418.355,187.424c0,0,17.521-11.768,26.673-11.637c9.152,0.131,20.528,3.53,23.535,4.053c3.007,0.523,6.014-0.262,6.014-0.262
					s-12.944,3.923-17.259,4.053c-4.315,0.131-18.436-3.922-23.143-2.353C429.468,182.847,418.355,187.424,418.355,187.424z"/>
				<path style="fill:#92E3A9;stroke:#263238;stroke-linecap:round;stroke-linejoin:round;stroke-miterlimit:10;" d="
					M414.955,199.453c0,0,5.622-10.591,10.329-12.944c4.707-2.354,9.414,1.83,16.867,4.707c7.453,2.877,13.075,4.838,13.075,4.838
					s-12.291,0.654-16.998-1.046c-4.707-1.7-12.16-4.969-13.859-4.707C422.669,190.562,414.955,199.453,414.955,199.453z"/>
				<path style="fill:#263238;stroke:#263238;stroke-linecap:round;stroke-linejoin:round;stroke-miterlimit:10;" d="
					M410.882,202.95c0,0,4.969-26.804,4.969-36.61c0-9.806-0.131-13.99-0.131-13.99s-3.269,12.814-3.661,14.383
					c-0.392,1.569-0.392,4.184-0.392,4.184s-2.354-13.859-5.361-17.259c-3.007-3.399-6.799-5.099-6.799-5.099s3.4,6.407,4.053,8.237
					c0.654,1.83-2.746-2.484-6.407-3.53c-3.661-1.046-12.683-3.007-12.683-3.007s12.029,4.838,13.467,6.407
					c1.438,1.569,4.969,7.322,5.23,7.976c0.261,0.654,4.576,8.107,5.753,12.421C410.098,181.376,410.882,202.95,410.882,202.95z"/>
				<path style="fill:#92E3A9;stroke:#263238;stroke-linecap:round;stroke-linejoin:round;stroke-miterlimit:10;" d="
					M407.875,170.393l-10.199-6.799c0,0-12.552-1.961-14.644-1.307c-2.092,0.654-4.969,2.615-4.969,2.615s8.107-0.785,11.637,0.915
					c3.53,1.7,11.245,4.707,15.821,10.852c4.576,6.145,6.276,12.944,6.799,15.167c0.523,2.223,1.569,6.407,1.569,6.407
					s2.354-11.375,1.438-15.952C414.413,177.715,407.875,170.393,407.875,170.393z"/>
				<path style="fill:#92E3A9;stroke:#263238;stroke-linecap:round;stroke-linejoin:round;stroke-miterlimit:10;" d="
					M420.689,163.071c0,0-6.015,8.106-6.93,10.721c-0.915,2.615-2.354-6.537-8.76-12.16c-6.407-5.622-27.065-9.022-27.065-9.022
					s25.104,12.16,28.896,16.998c3.792,4.838,7.453,13.075,7.453,13.467c0,0.392,0,4.838,0,4.838L420.689,163.071z"/>
				<path style="fill:#263238;stroke:#263238;stroke-linecap:round;stroke-linejoin:round;stroke-miterlimit:10;" d="
					M416.363,180.08c0,0,8.368-14.383,12.683-19.351c4.315-4.968,18.567-16.082,18.567-16.082s-5.884,7.322-13.467,17.651
					c-7.584,10.329-19.613,25.496-19.613,25.496L416.363,180.08z"/>
				<path style="fill:#92E3A9;stroke:#263238;stroke-linecap:round;stroke-linejoin:round;stroke-miterlimit:10;" d="
					M417.551,208.18c0,0,13.598-11.114,20.789-8.368c7.191,2.746,15.428,11.506,15.428,11.506l1.831,9.937
					c0,0-9.676-13.99-13.86-15.951c-4.184-1.961-10.068-2.746-12.944-2.092c-2.876,0.654-11.375,7.845-11.767,8.76
					C416.635,212.887,417.551,208.18,417.551,208.18z"/>
				<path style="fill:#92E3A9;stroke:#263238;stroke-linecap:round;stroke-linejoin:round;stroke-miterlimit:10;" d="
					M421.081,175.23c0,0,2.615-2.354,4.315-11.768c1.7-9.414-0.262-17.913-0.262-17.913s-0.915,5.622-3.007,12.16
					c-2.092,6.537-2.092,8.891-5.23,18.567c-3.138,9.675-3.53,27.065-3.399,27.458C413.628,204.126,421.081,175.23,421.081,175.23z"
					/>
				<path style="fill:#263238;stroke:#263238;stroke-linecap:round;stroke-linejoin:round;stroke-miterlimit:10;" d="
					M399.638,177.976c0,0-4.053-5.23-9.283-6.799c-5.23-1.569-10.591-1.438-10.591-1.438s7.845-2.223,13.075-1.177
					c5.23,1.046,9.283,7.191,11.114,12.944c1.831,5.753,1.831,19.22,1.831,19.22S402.907,183.076,399.638,177.976z"/>
				<path style="fill:#92E3A9;stroke:#263238;stroke-linecap:round;stroke-linejoin:round;stroke-miterlimit:10;" d="
					M419.305,183.044c0,0-0.282-5.505,4.094-11.858c4.376-6.352,13.269-9.881,19.481-12.564c6.211-2.682,9.882-3.811,9.882-3.811
					s-13.975,11.011-17.646,12.564c-3.67,1.553-6.352,3.67-8.893,6.635c-2.541,2.964-7.058,13.834-7.058,14.54
					C419.164,189.255,419.305,183.044,419.305,183.044z"/>
				<path style="fill:#92E3A9;stroke:#263238;stroke-linecap:round;stroke-linejoin:round;stroke-miterlimit:10;" d="
					M403.56,190.921c0,0-4.968-6.93-12.944-10.199c-7.976-3.269-22.358-5.361-22.881-5.361s13.467,4.446,17.782,6.407
					c4.315,1.961,9.937,4.969,11.637,6.799c1.7,1.831,9.676,14.644,9.676,14.644S406.568,197.981,403.56,190.921z"/>
				<path style="fill:#92E3A9;stroke:#263238;stroke-linecap:round;stroke-linejoin:round;stroke-miterlimit:10;" d="
					M414.543,210.402c0,0-13.598-20.135-17.39-21.835c-3.792-1.7-6.799-3.269-11.898-1.961c-5.099,1.307-15.69,7.061-17.651,8.106
					c-1.961,1.046-4.576,2.877-5.622,3.4c-1.046,0.523,13.467-8.107,21.574-9.152c8.107-1.046,9.545,2.876,18.305,9.675
					C410.621,205.434,414.543,210.402,414.543,210.402z"/>
				<path style="fill:#263238;stroke:#263238;stroke-linecap:round;stroke-linejoin:round;stroke-miterlimit:10;" d="
					M414.543,210.402c0,0-9.022-14.382-15.167-15.951c-6.145-1.569-13.467,1.83-15.952,3.269c-2.484,1.438-6.145,9.545-6.93,12.683
					c-0.784,3.138-1.307,5.492-1.307,5.492s7.845-12.813,10.983-14.775c3.138-1.961,7.976-4.969,9.414-5.23
					C397.023,195.628,411.405,204.388,414.543,210.402z"/>
				<path style="fill:#92E3A9;stroke:#263238;stroke-linecap:round;stroke-linejoin:round;stroke-miterlimit:10;" d="
					M410.882,202.95c0,0-17.52-11.768-26.673-11.637c-9.152,0.131-20.528,3.53-23.535,4.053c-3.007,0.523-6.015-0.262-6.015-0.262
					s12.944,3.923,17.259,4.053c4.315,0.131,18.436-3.922,23.143-2.354C399.769,198.373,410.882,202.95,410.882,202.95z"/>
				<path style="fill:#92E3A9;stroke:#263238;stroke-linecap:round;stroke-linejoin:round;stroke-miterlimit:10;" d="
					M406.175,197.719c0,0,3.007-9.152-0.131-15.821c-3.138-6.668-7.191-15.821-7.191-15.821s-1.438,11.637,1.046,19.482
					C402.384,193.405,406.175,197.719,406.175,197.719z"/>
				<path style="fill:#92E3A9;stroke:#263238;stroke-linecap:round;stroke-linejoin:round;stroke-miterlimit:10;" d="
					M413.759,204.388c0,0,0-11.375,7.845-16.736c7.845-5.361,16.605-7.061,19.743-5.361c3.138,1.7,12.552,6.93,15.298,10.46
					c2.746,3.53,4.968,6.276,4.968,6.276s-13.86-9.153-18.174-12.29c-4.315-3.138-6.407-3.923-7.976-3.53
					c-1.569,0.392-10.591,4.576-14.121,7.322C417.812,193.274,413.759,204.388,413.759,204.388z"/>
				<path style="fill:#263238;stroke:#263238;stroke-linecap:round;stroke-linejoin:round;stroke-miterlimit:10;" d="
					M413.498,206.218c0.131-0.392-0.262-3.4,5.099-3.792c5.361-0.392,9.414,1.961,10.329,3.923c0.915,1.961,0,7.191-0.131,7.714
					c-0.131,0.523-0.785-6.93-7.061-8.368C415.459,204.257,413.498,206.218,413.498,206.218z"/>
				<path style="fill:#92E3A9;stroke:#263238;stroke-linecap:round;stroke-linejoin:round;stroke-miterlimit:10;" d="
					M415.589,211.056c0,0,1.7-3.661,5.099-7.583s10.721-7.583,14.252-5.361c3.53,2.223,7.584,11.506,8.891,14.121
					c1.307,2.615,4.315,10.591,4.576,10.983c0.261,0.392-7.714-7.061-11.114-11.506c-3.4-4.445-5.753-10.591-7.714-11.114
					c-1.961-0.523-6.015,3.399-6.015,3.399l-9.676,13.99L415.589,211.056z"/>
				<path style="fill:#92E3A9;stroke:#263238;stroke-linecap:round;stroke-linejoin:round;stroke-miterlimit:10;" d="
					M415.067,201.511c0,0,1.7-7.845,7.583-9.937c5.884-2.092,12.944-2.876,15.69-1.307c2.746,1.569,14.775,12.683,14.775,12.683
					l1.569,4.053c0,0-17.651-12.944-21.704-14.252c-4.053-1.308-4.053-1.308-8.368,1.307
					C420.297,196.674,415.067,201.511,415.067,201.511z"/>
				<path style="fill:#92E3A9;stroke:#263238;stroke-linecap:round;stroke-linejoin:round;stroke-miterlimit:10;" d="
					M416.112,201.511c0,0,17.128-10.329,20.789-11.637c3.661-1.307,11.898,1.961,14.252,4.969
					c2.353,3.007,10.591,19.351,10.983,20.528c0.392,1.177-5.491-12.683-14.383-16.736c-8.891-4.053-14.644-3.269-19.874-2.746
					c-5.23,0.523-11.768,9.283-11.768,9.283V201.511z"/>
				<path style="fill:#92E3A9;stroke:#263238;stroke-linecap:round;stroke-linejoin:round;stroke-miterlimit:10;" d="
					M414.282,214.979c0,0-5.622-10.591-10.329-12.944c-4.707-2.354-9.414,1.83-16.867,4.707c-7.453,2.876-13.075,4.838-13.075,4.838
					s12.291,0.654,16.998-1.046c4.707-1.7,12.16-4.968,13.859-4.707C406.568,206.088,414.282,214.979,414.282,214.979z"/>
				<path style="fill:#92E3A9;stroke:#263238;stroke-linecap:round;stroke-linejoin:round;stroke-miterlimit:10;" d="
					M413.759,204.388c0,0-2.877-8.237-4.576-18.959c-1.7-10.722,1.177-29.942,3.923-35.695c2.746-5.753,10.852-15.167,10.852-15.167
					s-14.383,12.552-17.52,24.32c-3.138,11.768-3.661,18.044-2.354,24.45S413.759,204.388,413.759,204.388z"/>
				<g>
					<path style="fill:#92E3A9;stroke:#263238;stroke-linecap:round;stroke-linejoin:round;stroke-miterlimit:10;" d="
						M417.188,187.844c0,0,1.27-4.8,2.682-5.788c1.412-0.988,4.235,0.141,4.235,0.141s-4.941,4.376-4.941,6.352
						c0,1.976-5.019,13.876-5.019,13.876L417.188,187.844z"/>
					<path style="fill:#92E3A9;stroke:#263238;stroke-linecap:round;stroke-linejoin:round;stroke-miterlimit:10;" d="
						M419.87,182.056c0,0,2.117,1.481,3.77,2.977c1.653,1.495,9.523,9.287,9.995,9.759c0.472,0.472-4.092-9.917-5.116-11.884
						c-1.023-1.968-2.833-3.384-3.384-3.306C424.584,179.681,419.72,180.811,419.87,182.056z"/>
				</g>
			</g>
			<g>
				<path style="fill:#263238;stroke:#263238;stroke-linecap:round;stroke-linejoin:round;stroke-miterlimit:10;" d="
					M415.866,251.29c0,0,12.043-4.394,19.366-6.835c7.323-2.441,12.857,3.58,12.857,3.58s-9.113,1.302-12.368,1.465
					c-3.255,0.163-8.137,0.326-11.066,1.465c-2.929,1.139,5.859,0.977,8.788,3.906c2.929,2.929,9.113,10.415,10.09,12.694
					c0.976,2.278-9.927-10.741-17.576-12.694c-7.649-1.953-13.67,2.115-13.67,2.115L415.866,251.29z"/>
				<path style="fill:#A6A6A6;stroke:#263238;stroke-linecap:round;stroke-linejoin:round;stroke-miterlimit:10;" d="
					M403.986,269.191c0,0,1.139,5.37,0,20.343c-1.139,14.972-2.278,75.011-2.278,75.011l3.906,0.488c0,0,1.953-80.707,1.953-83.474
					c0-2.767,0.163-12.694,0.163-12.694L403.986,269.191z"/>
				<path style="fill:#92E3A9;stroke:#263238;stroke-linecap:round;stroke-linejoin:round;stroke-miterlimit:10;" d="
					M407.078,253.405c-0.303-0.662-4.882-10.415-7.323-12.043c-2.441-1.628-8.625-3.906-11.392-3.906s-9.927,0.814-9.927,0.814
					s12.694,2.929,16.274,5.696c3.58,2.767,9.764,9.113,9.927,10.253c0.163,1.139,1.465,3.743,1.465,3.743
					S408.868,257.311,407.078,253.405z"/>
				<path style="fill:#263238;stroke:#263238;stroke-linecap:round;stroke-linejoin:round;stroke-miterlimit:10;" d="
					M403.498,259.752c0,0-9.764-1.139-13.345,1.465c-3.58,2.604-9.927,9.927-9.927,13.833s0.326,12.856,0.326,12.043
					c0-0.814,1.79-13.507,5.859-17.413c4.068-3.906,5.859-6.184,11.229-6.835c5.37-0.651,5.37-0.651,5.37-0.651l5.533,2.929
					L403.498,259.752z"/>
				<path style="fill:#92E3A9;stroke:#263238;stroke-linecap:round;stroke-linejoin:round;stroke-miterlimit:10;" d="
					M410.973,257.387c0,0,1.953-1.627,8.951-2.604c6.998-0.976,8.951-1.627,13.345-0.814c4.394,0.814,9.113,2.604,9.113,2.604
					s-13.996-0.326-15.298-0.326c-1.302,0,8.463,6.347,10.253,8.3c1.79,1.953,3.417,6.021,3.417,6.021s-13.996-10.09-16.437-11.229
					c-2.441-1.139-3.417-1.79-3.417-1.79s-3.906-0.651-5.533-0.163c-1.627,0.488-2.929,0.976-3.417,1.139
					c-0.488,0.163-2.278,0.651-2.278,0.651L410.973,257.387z"/>
				<path style="fill:#92E3A9;stroke:#263238;stroke-linecap:round;stroke-linejoin:round;stroke-miterlimit:10;" d="
					M408.868,252.104c0,0,0.814-9.439,5.37-13.67c4.557-4.231,20.18-12.368,20.18-12.368l9.602-4.72c0,0-2.766,6.184-8.625,8.625
					c-5.859,2.441-7.811,0.651-10.578,3.58c-2.767,2.929-7.161,8.951-7.974,11.717c-0.814,2.767-6.184,10.415-6.51,12.206
					C410.007,259.264,408.868,252.104,408.868,252.104z"/>
				<path style="fill:#92E3A9;stroke:#263238;stroke-linecap:round;stroke-linejoin:round;stroke-miterlimit:10;" d="
					M409.519,254.707c0,0,0.977-14.647-0.651-18.39c-1.627-3.743-6.672-12.368-7.811-14.321c-1.139-1.953-2.604-3.58-2.604-3.58
					s4.068,12.857,5.208,19.529c1.139,6.672,1.302,8.788,1.627,11.555c0.326,2.767,0.651,5.208,0.651,5.208H409.519z"/>
				<path style="fill:#92E3A9;stroke:#263238;stroke-linecap:round;stroke-linejoin:round;stroke-miterlimit:10;" d="
					M407.404,260.078c0,0,2.116-5.859,5.37-11.066c3.255-5.208,7.974-6.347,8.788-6.347c0.814,0,3.58,0,3.58,0
					s-6.347,3.092-7.161,6.021c-0.814,2.929-2.604,8.951-3.906,10.253c-1.302,1.302-4.557,8.137-5.37,9.764
					c-0.814,1.627-2.929,2.441-2.929,2.441S402.847,266.75,407.404,260.078z"/>
				<path style="fill:#92E3A9;stroke:#263238;stroke-linecap:round;stroke-linejoin:round;stroke-miterlimit:10;" d="
					M410.007,260.566l-4.231,10.578l1.302,1.139c0,0,1.953-2.278,3.418-4.394c1.465-2.116,2.604-3.743,2.604-4.719
					S410.007,260.566,410.007,260.566z"/>
				<path style="fill:#92E3A9;stroke:#263238;stroke-linecap:round;stroke-linejoin:round;stroke-miterlimit:10;" d="M408.32,269.49
					c0,0-6.184-13.507-8.137-16.437c-1.953-2.929-4.069-5.37-8.3-6.51c-4.231-1.139-11.392-3.255-17.739-2.116
					c-6.347,1.139-17.25,2.604-17.25,2.604s7.812,3.58,17.25,2.929c9.439-0.651,17.739-0.163,17.739-0.163s1.953,0.814,3.418,5.533
					c1.465,4.719,4.557,8.951,6.51,10.741c1.953,1.79,5.207,6.184,5.207,6.184L408.32,269.49z"/>
				<path style="fill:#92E3A9;stroke:#263238;stroke-linecap:round;stroke-linejoin:round;stroke-miterlimit:10;" d="
					M409.519,254.707c0,0-6.835-2.767-8.462-0.326c-1.627,2.441-4.231,15.135-4.231,15.135s-1.302,6.672-1.627,7.323
					c-0.325,0.651,8.625-6.184,10.741-12.043C408.055,258.939,409.519,254.707,409.519,254.707z"/>
				<path style="fill:#92E3A9;stroke:#263238;stroke-linecap:round;stroke-linejoin:round;stroke-miterlimit:10;" d="
					M416.029,258.939c0,0-6.021,0.163-6.021,1.627c0,1.465,0.814,4.069,0.488,7.323c-0.326,3.255-0.651,6.184-0.651,6.184
					s6.51-2.767,6.835-6.509C417.005,263.821,416.029,258.939,416.029,258.939z"/>
				<path style="fill:#263238;stroke:#263238;stroke-linecap:round;stroke-linejoin:round;stroke-miterlimit:10;" d="
					M418.929,258.926c0,0,6.184,4.231,8.3,8.137c2.116,3.906,3.743,12.043,3.743,12.043s-4.231-8.137-7.486-12.531
					c-3.255-4.394-8.137-7.974-9.113-6.835C413.395,260.879,416.65,257.95,418.929,258.926z"/>
			</g>
		</g>
		<g>
			<polygon style="fill:#263238;stroke:#263238;stroke-linecap:round;stroke-linejoin:round;stroke-miterlimit:10;" points="
				416.338,407.499 382.794,407.499 375.607,361.662 423.526,361.662 			"/>
			<polygon style="fill:#263238;stroke:#263238;stroke-linecap:round;stroke-linejoin:round;stroke-miterlimit:10;" points="
				420.038,409.929 378.053,409.929 375.954,405.762 422.137,405.762 			"/>
		</g>
	</g>
</g>
<g id="Sofa">
	<g>
		<g>
			<polygon style="fill:#263238;stroke:#263238;stroke-miterlimit:10;" points="48.814,431.518 54.709,453.919 64.613,453.919 
				69.328,433.876 51.702,432.529 			"/>
			<polygon style="fill:#263238;stroke:#263238;stroke-miterlimit:10;" points="451.25,433.37 446.079,453.919 436.176,453.919 
				431.46,433.876 447.633,433.62 			"/>
			<path style="fill:#92E3A9;stroke:#263238;stroke-miterlimit:10;" d="M64.076,293.652c0,0-35.399,25.935-39.305,40.256
				c-3.906,14.321,0.976,22.784,7.812,26.689c6.835,3.906,9.439,4.557,9.439,4.557s2.604,64.445,5.208,67.374
				c2.604,2.929,5.859,2.929,5.859,2.929h400.014c0,0,3.255,1.627,3.255-6.835s3.58-57.61,4.231-61.19
				c0.651-3.58,19.529-11.717,18.878-25.713c-0.651-13.996-14.972-22.133-14.972-22.133l-30.921-30.27
				c0,0-23.76,2.278-26.689,11.066c-2.929,8.788-2.929,13.67-2.929,13.67H86.612c0,0-3.255-9.439-9.439-16.599
				C70.989,290.294,64.076,293.652,64.076,293.652z"/>
			<path style="fill:none;stroke:#263238;stroke-miterlimit:10;" d="M66.736,355.898c0.8,4.136,1.083,7.921,1.323,10.559"/>
			<path style="fill:none;stroke:#263238;stroke-miterlimit:10;" d="M30.108,352.59c-1.421-2.565-2.367-6.028-1.756-10.544
				c1.627-12.043,16.599-14.647,27.34-6.51c4.838,3.665,7.695,8.849,9.433,14.094"/>
			<path style="fill:none;stroke:#263238;stroke-miterlimit:10;" d="M36.163,358.645c0,0-1.509-0.728-3.216-2.372"/>
			<line style="fill:none;stroke:#263238;stroke-miterlimit:10;" x1="69.862" y1="425.546" x2="70.012" y2="430.576"/>
			<line style="fill:none;stroke:#263238;stroke-miterlimit:10;" x1="68.385" y1="376.221" x2="69.721" y2="420.849"/>
			<path style="fill:none;stroke:#263238;stroke-miterlimit:10;" d="M472.269,338.813c-0.977-1.599-2.413-3.205-4.52-4.579
				c-7.486-4.882-15.948-1.302-23.109,5.859"/>
			<path style="fill:none;stroke:#263238;stroke-miterlimit:10;" d="M474.258,346.928c0,0,0.187-1.492-0.229-3.58"/>
			<path style="fill:none;stroke:#263238;stroke-miterlimit:10;" d="M430.451,416.804c-0.658,7.912-1.109,13.446-1.109,13.446"/>
			<path style="fill:none;stroke:#263238;stroke-miterlimit:10;" d="M440.408,346.602c0,0-3.906,6.835-5.208,17.25
				c-0.815,6.521-2.906,30.904-4.356,48.227"/>
		</g>
		<g>
			<path style="fill:#92E3A9;stroke:#263238;stroke-miterlimit:10;" d="M195.037,254.508c0,0-1.151-6.62,7.196-6.62
				s90.666-0.576,94.983-0.288c4.317,0.288,4.317,2.878,4.317,2.878l10.938-3.454l103.042,1.439c0,0,12.952-3.166,14.967-0.863
				c2.015,2.303,7.398,42.295,5.469,45.189c-4.605,6.908-12.089,6.908-12.089,6.908l-7.771-0.288c0,0-4.893,8.059-5.181,20.148
				c-0.288,12.089,1.151,21.011,0,21.875s-6.62,1.151-6.62,1.151l-212.417,2.015l2.303-4.893v-7.483L195.037,254.508z"/>
			<path style="fill:#92E3A9;stroke:#263238;stroke-miterlimit:10;" d="M194.174,339.705c0,0,0.864-85.773,0.576-88.651
				c-0.288-2.878-4.029-2.878-4.029-2.878s-69.367,0-77.138-0.576c-7.771-0.576-27.919-0.576-39.145-0.288
				c-11.225,0.288-11.513,3.166-10.937,6.332c0.576,3.166,0.576,40.008,0.576,40.008s9.786,3.166,13.528,12.377
				c3.742,9.21,3.454,27.631,3.454,27.631l-0.288,14.967l111.101-1.727L194.174,339.705z"/>
			<g>
				<path style="fill:#263238;stroke:#263238;stroke-miterlimit:10;" d="M188.993,345.337c0,0,1.439-0.864-23.314-2.303
					c-24.753-1.439-58.141-2.303-69.079,1.151c-10.937,3.454-22.738,12.952-23.602,17.845c-0.863,4.893,0.288,23.602,2.878,27.056
					c2.59,3.454,9.498,4.605,29.934,4.605s70.518,0.288,76.562-1.439c6.044-1.727,7.196-4.317,7.196-4.317s4.605,5.469,32.525,5.181
					s71.669-0.288,77.138-1.439c5.469-1.151,9.498-4.03,9.498-4.03s4.893,6.908,35.115,6.332
					c30.222-0.576,76.562-0.288,80.304-1.727c3.742-1.439,5.469-7.771,5.469-7.771s1.727-17.27-0.863-22.451
					c-2.59-5.181-8.347-12.089-8.347-12.089s-10.937-7.771-34.251-10.074c0,0-56.99-8.059-85.773-2.303
					c0,0-83.758-4.605-109.95,6.908L188.993,345.337z"/>
				<path style="fill:#92E3A9;stroke:#263238;stroke-miterlimit:10;" d="M188.993,342.871c0,0,1.439-0.863-23.314-2.303
					c-24.753-1.439-58.141-2.303-69.079,1.151c-10.937,3.454-22.738,12.952-23.602,17.845c-0.863,4.893,0.288,23.602,2.878,27.056
					c2.59,3.454,9.498,4.605,29.934,4.605s70.518,0.288,76.562-1.439c6.044-1.727,7.196-4.317,7.196-4.317s4.605,5.469,32.525,5.181
					c27.919-0.288,71.669-0.288,77.138-1.439c5.469-1.151,9.498-4.03,9.498-4.03s4.893,6.908,35.115,6.332
					c30.222-0.576,76.562-0.288,80.304-1.727c3.742-1.439,5.469-7.771,5.469-7.771s1.727-17.27-0.863-22.451
					c-2.59-5.181-8.347-12.089-8.347-12.089s-10.937-7.771-34.251-10.074c0,0-56.99-8.059-85.773-2.303
					c0,0-83.758-4.605-109.95,6.908L188.993,342.871z"/>
				<polyline style="fill:none;stroke:#263238;stroke-miterlimit:10;" points="124.536,363.594 175.465,363.594 188.993,361.292 
									"/>
				<polyline style="fill:none;stroke:#263238;stroke-miterlimit:10;" points="77.604,363.306 102.645,363.594 118.156,363.594 				
					"/>
				<path style="fill:none;stroke:#263238;stroke-miterlimit:10;" d="M198.203,362.155l31.949-0.576c0,0,53.248,0,64.761,1.151
					s12.952,0.576,12.952,0.576"/>
				<polyline style="fill:none;stroke:#263238;stroke-miterlimit:10;" points="364.648,363.98 408.605,363.594 427.026,362.731 				
					"/>
				<polyline style="fill:none;stroke:#263238;stroke-miterlimit:10;" points="315.925,363.594 342.981,364.17 355.926,364.056 				
					"/>
				<path style="fill:none;stroke:#263238;stroke-miterlimit:10;" d="M309.305,382.015c0,0,0.863-15.255,1.151-21.011
					c0.288-5.757-2.878-12.952-2.878-12.952"/>
				<path style="fill:none;stroke:#263238;stroke-miterlimit:10;" d="M189.48,374.796c-0.124,3.497-0.199,6.068-0.199,6.068"/>
				<path style="fill:none;stroke:#263238;stroke-miterlimit:10;" d="M191.871,344.598c0,0-0.863,7.484-1.439,12.089
					c-0.264,2.114-0.528,7.38-0.737,12.46"/>
			</g>
			<line style="fill:none;stroke:#263238;stroke-miterlimit:10;" x1="301.821" y1="265.01" x2="301.593" y2="331.61"/>
			<line style="fill:none;stroke:#263238;stroke-miterlimit:10;" x1="301.821" y1="253.644" x2="301.821" y2="258.293"/>
		</g>
	</g>
</g>
<g id="Cushions">
	<g>
		<path style="fill:#263238;stroke:#263238;stroke-miterlimit:10;" d="M68.155,303.994c0,0,3.806,19.616,3.806,31.619
			c0,12.003,0.585,19.323,3.806,19.615c3.22,0.293,15.224-7.026,15.224-7.026L68.155,303.994z"/>
		<path style="fill:#FFFFFF;stroke:#263238;stroke-miterlimit:10;" d="M77.434,265.521l-21.12-4.332c0,0-4.603-0.542-1.354,7.311
			c3.249,7.853,16.788,49.552,16.788,49.552l4.332,28.973c0,0-0.812,5.957,5.416,4.603c6.228-1.354,27.619-8.665,36.284-9.206
			c8.665-0.542,32.222,2.166,37.909,0.542c5.686-1.625,6.228-5.415,4.332-6.228c-1.896-0.812-19.225-40.075-19.225-40.075
			s-9.206-30.056-10.289-33.305c-1.083-3.249-0.812-5.686-5.145-4.874c-4.332,0.812-7.04,3.249-7.04,3.249
			S84.475,267.145,77.434,265.521z"/>
	</g>
	<g>
		<path style="fill:#263238;stroke:#263238;stroke-miterlimit:10;" d="M430.383,277.583c0,0-4.447,35.576-4.649,44.875
			c-0.202,9.298,2.021,18.597,1.213,21.831c-0.809,3.234-3.032,5.66-4.649,5.256c-1.617-0.404-8.086-3.032-8.086-3.032
			s3.032-10.915,2.628-17.586C416.435,322.256,430.383,277.583,430.383,277.583z"/>
		<path style="fill:#FFFFFF;stroke:#263238;stroke-miterlimit:10;" d="M384.223,260.105l-24.641-6.228c0,0-8.936-10.56-11.373,0.812
			c-2.437,11.372-4.062,70.402-5.957,77.171c-1.895,6.769,0.542,8.936,3.791,8.936s20.308-2.166,25.453-1.354
			c5.145,0.812,38.821,8.755,43.866,8.394c5.044-0.36,6.769-5.686,6.769-5.686s-1.625-6.228-1.625-8.123
			c0-1.895,11.373-49.823,11.914-55.238c0.542-5.415,7.04-15.163,4.874-18.684c-2.166-3.52-4.603-2.166-10.019-1.354
			C421.861,259.564,390.18,261.188,384.223,260.105z"/>
	</g>
	<g>
		<path style="fill:#263238;stroke:#263238;stroke-miterlimit:10;" d="M135.784,311.021l8.49,31.912c0,0,7.612,4.684,10.832,4.099
			c3.22-0.586,29.277-2.635,30.448-2.635c1.171,0,18.638-2.293,20.787-4.977c2.148-2.684-16.688-12.589-16.688-12.589
			S135.491,307.215,135.784,311.021z"/>
		<path style="fill:#FFFFFF;stroke:#263238;stroke-miterlimit:10;" d="M129.965,273.373c0,0-10.831-2.437-13.268,0
			c-2.437,2.437,2.437,6.228,2.437,6.228l29.515,60.654c0,0,4.603,9.206,11.914,6.228c7.311-2.979,20.037-4.603,20.037-4.603
			l21.933-1.083c0,0,6.769-0.542,5.957-4.062c-0.812-3.52,2.708,1.625-10.019-27.89c-12.726-29.514-22.745-38.992-26.265-37.908
			c-3.52,1.083-7.582,2.978-10.019,3.52C159.75,274.998,129.965,273.373,129.965,273.373z"/>
	</g>
	<g>
		<path style="fill:#263238;stroke:#263238;stroke-miterlimit:10;" d="M376.816,274.349c0,0-15.565,59.833-15.16,62.461
			c0.404,2.628,4.649,2.426,4.649,2.426l-11.32,3.436l-7.047,3.811L376.816,274.349z"/>
		<path style="fill:#FFFFFF;stroke:#263238;stroke-miterlimit:10;" d="M313.28,272.019l-0.87,2.058l-10.232,24.207l-12.185,28.161
			c0,0-7.582,12.185-5.145,13.268c2.437,1.083,21.391,2.979,28.702,4.332c7.311,1.354,30.868,3.791,34.388,2.437
			c3.52-1.354,3.791-2.708,5.145-5.957c1.354-3.249,21.391-59.029,23.287-63.903c1.895-4.874,3.52-7.311,0-7.311
			c-3.52,0-2.437,2.166-18.142,1.895c-15.705-0.271-31.41-2.166-34.659-2.437C320.32,268.499,316.258,265.25,313.28,272.019z"/>
	</g>
</g>
</svg>
